# xmcd
#
# Track frame offsets:
# 150
# 15679
# 39673
# 58622
# 73567
# 94898
# 112072
# 132200
# 154482
# 171944
# 197497
# 218488
# 243179
# 261787
# 282190
# 302313
# 325806
#
# Disc length: 4790 seconds
#
# Revision: 0
# Processed by: cddbd v1.5.2PL0 Copyright (c) Steve Scherf et al.
# Submitted via: Audion 3.0.2 (http://www.panic.com/audion/)
#
DISCID=ec12b411
DTITLE=Various Artist - c6
DYEAR=1900
DGENRE=
TTITLE0=dance with you
TTITLE1=divine sounds
TTITLE2=ebony eyes
TTITLE3=fate
TTITLE4=flip the mic
TTITLE5=go!
TTITLE6=grindin'
TTITLE7=groovin' you
TTITLE8=guns are drawn
TTITLE9=harmonise
TTITLE10=hell on earth
TTITLE11=hip hop be bop
TTITLE12=i don't care
TTITLE13=if i ever feel better
TTITLE14=i've seen that face before
TTITLE15=jungle fever
TTITLE16=la vie en rose
EXTD=
EXTT0=
EXTT1=
EXTT2=
EXTT3=
EXTT4=
EXTT5=
EXTT6=
EXTT7=
EXTT8=
EXTT9=
EXTT10=
EXTT11=
EXTT12=
EXTT13=
EXTT14=
EXTT15=
EXTT16=
PLAYORDER=
